<svg xmlns="http://www.w3.org/2000/svg" version="1.1" xmlns:xlink="http://www.w3.org/1999/xlink" width="512" height="512" x="0" y="0" viewBox="0 0 64 64" style="enable-background:new 0 0 512 512" xml:space="preserve" class=""><g><g fill="#d84938" fill-rule="evenodd"><path d="M25.06 18.434c-1.097.026-2.009.452-2.735 1.278a4.688 4.688 0 0 0-.88 2.9c0 1.412.428 2.88 1.284 4.406.414.712.95 1.316 1.604 1.812a3.63 3.63 0 0 0 2.248.744c1.064-.038 1.952-.406 2.662-1.106a3.973 3.973 0 0 0 .66-1.526c.058-.522.088-.96.088-1.316 0-1.54-.408-3.09-1.224-4.654a5.198 5.198 0 0 0-1.51-1.832c-.638-.444-1.37-.68-2.198-.706zM26.986 35.817c-.206-.026-.734 0-1.584.076-.838.114-1.694.298-2.57.552-.206.076-.496.19-.868.344a5.235 5.235 0 0 0-1.14.704c-.374.316-.688.71-.946 1.18-.296.494-.446 1.092-.446 1.79 0 1.37.644 2.5 1.932 3.388 1.224.89 2.898 1.346 5.024 1.372 1.906-.026 3.36-.432 4.364-1.218.98-.776 1.468-1.772 1.468-2.99 0-.99-.334-1.854-1.004-2.59-.708-.698-1.816-1.554-3.322-2.57a9.213 9.213 0 0 0-.908-.038" fill="#ffffff" opacity="1" data-original="#d84938" class=""></path><path d="M48 33.142h-4.572v4.572h-2.284v-4.572h-4.572v-2.286h4.572v-4.572h2.284v4.572H48zM31.516 19.216c.304.304.602.678.894 1.122.28.42.528.914.744 1.486.178.57.266 1.236.266 1.998-.024 1.396-.342 2.512-.958 3.35-.302.406-.62.78-.958 1.124-.374.342-.77.692-1.192 1.046a5.478 5.478 0 0 0-.67.82c-.24.316-.36.684-.36 1.104 0 .406.122.742.37 1.008.21.254.414.476.612.666l1.372 1.086c.852.672 1.6 1.414 2.244 2.226.606.826.92 1.904.946 3.238 0 1.89-.866 3.566-2.596 5.024-1.796 1.51-4.386 2.292-7.77 2.342-2.832-.026-4.948-.608-6.344-1.748C16.706 44.044 16 42.77 16 41.288c0-.722.23-1.526.688-2.412.446-.888 1.25-1.666 2.418-2.338a12.929 12.929 0 0 1 4.128-1.444c1.426-.202 2.612-.316 3.556-.342a8.202 8.202 0 0 1-.78-1.186c-.266-.408-.398-.9-.398-1.474 0-.344.05-.632.152-.862.088-.242.17-.464.246-.668-.458.05-.892.076-1.298.076-2.154-.026-3.794-.68-4.924-1.962-1.182-1.192-1.772-2.582-1.772-4.168 0-1.916.838-3.654 2.512-5.216 1.148-.912 2.344-1.51 3.584-1.788a17.858 17.858 0 0 1 3.45-.362h8.088l-2.498 1.406h-2.494c.254.154.54.376.858.668zM32 0C14.326 0 0 14.326 0 32c0 17.672 14.326 32 32 32s32-14.328 32-32C64 14.326 49.674 0 32 0z" fill="#ffffff" opacity="1" data-original="#d84938" class=""></path></g></g></svg>